<?xml version="1.0" encoding="UTF-8" standalone="no"?>
<!-- Created with Inkscape (http://www.inkscape.org/) -->

<svg
   xmlns:dc="http://purl.org/dc/elements/1.1/"
   xmlns:cc="http://creativecommons.org/ns#"
   xmlns:rdf="http://www.w3.org/1999/02/22-rdf-syntax-ns#"
   xmlns:svg="http://www.w3.org/2000/svg"
   xmlns="http://www.w3.org/2000/svg"
   xmlns:sodipodi="http://sodipodi.sourceforge.net/DTD/sodipodi-0.dtd"
   xmlns:inkscape="http://www.inkscape.org/namespaces/inkscape"
   version="1.1"
   id="svg4361"
   width="2048"
   height="2048"
   viewBox="0 0 2048 2048"
   sodipodi:docname="logo-white.svg"
   inkscape:version="0.92.2 (5c3e80d, 2017-08-06)"
   inkscape:export-filename="C:\Users\James\Pictures\logo-white.png"
   inkscape:export-xdpi="96"
   inkscape:export-ydpi="96">
  <metadata
     id="metadata4367">
    <rdf:RDF>
      <cc:Work
         rdf:about="">
        <dc:format>image/svg+xml</dc:format>
        <dc:type
           rdf:resource="http://purl.org/dc/dcmitype/StillImage" />
        <dc:title></dc:title>
      </cc:Work>
    </rdf:RDF>
  </metadata>
  <defs
     id="defs4365">
    <inkscape:path-effect
       effect="bspline"
       id="path-effect5234"
       is_visible="true"
       weight="33.333333"
       steps="2"
       helper_size="0"
       apply_no_weight="true"
       apply_with_weight="true"
       only_selected="false" />
    <inkscape:path-effect
       effect="bspline"
       id="path-effect5230"
       is_visible="true"
       weight="33.333333"
       steps="2"
       helper_size="0"
       apply_no_weight="true"
       apply_with_weight="true"
       only_selected="false" />
    <inkscape:path-effect
       effect="bspline"
       id="path-effect5226"
       is_visible="true"
       weight="33.333333"
       steps="2"
       helper_size="0"
       apply_no_weight="true"
       apply_with_weight="true"
       only_selected="false" />
    <inkscape:path-effect
       effect="bspline"
       id="path-effect5222"
       is_visible="true"
       weight="33.333333"
       steps="2"
       helper_size="0"
       apply_no_weight="true"
       apply_with_weight="true"
       only_selected="false" />
  </defs>
  <sodipodi:namedview
     pagecolor="#ffffff"
     bordercolor="#666666"
     borderopacity="1"
     objecttolerance="10"
     gridtolerance="10"
     guidetolerance="10"
     inkscape:pageopacity="0"
     inkscape:pageshadow="2"
     inkscape:window-width="1920"
     inkscape:window-height="1017"
     id="namedview4363"
     showgrid="false"
     inkscape:snap-bbox="false"
     inkscape:snap-grids="true"
     showguides="false"
     inkscape:zoom="0.1767767"
     inkscape:cx="1836.7096"
     inkscape:cy="1122.4419"
     inkscape:window-x="-8"
     inkscape:window-y="-8"
     inkscape:window-maximized="1"
     inkscape:current-layer="layer4"
     fit-margin-top="10"
     fit-margin-left="10"
     fit-margin-bottom="10"
     fit-margin-right="10" />
  <g
     inkscape:groupmode="layer"
     id="layer4"
     inkscape:label="lines"
     style="display:inline;opacity:1"
     transform="translate(-280.36087,-1162.0203)">
    <g
       id="g5276"
       transform="matrix(0.68881876,0,0,0.68491454,73.466669,1018.2799)"
       style="fill:#ffffff;fill-opacity:1;stroke:#ffffff;stroke-opacity:1"
       inkscape:export-xdpi="96"
       inkscape:export-ydpi="96">
      <path
         inkscape:original-d="m 1618.9408,1175.6611 c -58.9998,33.7263 -118.0006,67.4534 -177.0022,101.1811 -56.5425,8.9272 -113.0839,17.8548 -169.6272,26.7832 -31.9584,9.9192 -63.9165,19.8388 -95.8762,29.7592 9.8347,27.7754 19.6678,55.5497 29.5004,83.3256 56.5442,56.5427 113.0857,111.1001 169.6271,166.6513 93.419,60.5096 184.3783,121.0198 276.566,181.5308 78.6685,34.7182 157.3363,69.4372 236.0031,104.157 63.9181,15.8707 130.2942,31.7424 195.4399,47.6146 20.8969,-10.9123 41.7931,-21.8241 62.6883,-32.735 23.3542,-81.3383 46.7099,-162.6842 70.0634,-244.0251 30.7302,-80.3495 61.4601,-160.7001 92.1887,-241.0491 34.4176,-39.6791 68.8352,-79.3585 103.2513,-119.0366 14.7509,-15.8719 31.9597,-31.7438 47.9381,-47.6146 7.3757,-10.9119 14.7512,-21.8241 22.1253,-32.7351 -13.519,-19.8385 -27.041,-39.6796 -40.563,-59.5183 -122.9157,-68.4459 -245.8356,-136.8928 -368.7547,-205.33812 -30.7287,9.91902 -61.4582,19.83872 -92.1887,29.75915 -120.4633,70.43177 -240.9188,140.85917 -361.3796,211.28997 z"
         inkscape:path-effect="#path-effect5222"
         inkscape:connector-curvature="0"
         id="path5220"
         d="m 1649.6714,1157.309 c -89.7303,52.0786 -148.7311,85.8056 -206.5032,107.1333 -57.772,21.3276 -114.3134,30.2552 -158.5642,39.679 -44.2509,9.4237 -76.209,19.3432 -87.2721,38.1912 -11.063,18.8479 -1.2299,46.6222 32.2066,88.5293 33.4365,41.9071 89.4819,96.9694 164.2772,155.2818 74.7952,58.3124 166.1247,118.2587 251.5529,165.8733 85.4282,47.6146 164.096,82.3336 235.4229,107.4875 71.327,25.1539 137.6343,41.3081 180.6557,43.7878 43.0215,2.4796 63.9177,-8.4322 86.042,-54.557 22.1243,-46.1248 45.48,-127.4707 72.5219,-208.3159 27.0419,-80.8452 57.7718,-161.1958 90.3451,-221.2098 32.5733,-60.014 66.9909,-99.6935 91.8796,-127.1612 24.8888,-27.4677 41.4872,-43.9541 53.1641,-57.3455 11.677,-13.3914 19.0524,-24.3036 15.9797,-39.678 -3.0727,-15.3743 -16.5948,-35.2153 -84.8134,-79.3575 -68.2186,-44.1421 -191.1385,-112.5891 -267.9621,-141.8525 -76.8236,-29.26342 -107.5531,-19.34373 -183.15,20.83227 -75.5969,40.17603 -196.0524,110.60343 -285.7827,162.68193 z"
         style="fill:#ffffff;fill-opacity:1;stroke:#ffffff;stroke-width:30;stroke-linecap:round;stroke-linejoin:round;stroke-miterlimit:4;stroke-dasharray:none;stroke-opacity:1" />
      <path
         inkscape:original-d="m 2304.8246,1416.7102 c 13.5219,10.911 27.0429,21.8226 40.563,32.7351 9.8344,6.943 19.6678,13.8869 29.5004,20.8314 18.4385,-15.8722 34.418,-31.7439 51.6256,-47.6147 18.4378,-20.8311 34.418,-41.6635 51.6257,-62.4942 -13.5196,-9.92 -27.0411,-19.8402 -40.563,-29.7591 -13.5201,-7.9366 -27.0411,-15.8723 -40.5631,-23.8073"
         inkscape:path-effect="#path-effect5226"
         inkscape:connector-curvature="0"
         id="path5224"
         d="m 2304.8246,1416.7102 c 13.5212,10.9119 27.0422,21.8235 38.7194,30.7513 11.6773,8.9278 21.5108,15.8716 35.3641,11.101 13.8534,-4.7706 30.3979,-20.0298 47.8552,-38.6825 17.4573,-18.6528 34.1681,-38.8816 36.0119,-54.2565 1.8439,-15.3748 -11.6777,-25.295 -25.1986,-34.2227 -13.521,-8.9277 -27.042,-16.8634 -40.5634,-24.7994"
         style="fill:#ffffff;fill-opacity:1;stroke:#ffffff;stroke-width:30;stroke-linecap:butt;stroke-linejoin:miter;stroke-miterlimit:4;stroke-dasharray:none;stroke-opacity:1" />
      <path
         inkscape:original-d="M 1947.1325,982.22662 C 1626.3168,742.16871 1305.5002,502.11159 984.68273,262.05519 c -15.97845,-11.9044 -31.95782,-23.80806 -47.93811,-35.71098 -22.12442,-1.98469 -44.24964,-3.96863 -66.37585,-5.95183 -19.66671,12.89536 -39.33291,25.79052 -59.00075,38.6869 6.14715,19.83971 12.29274,39.67812 18.43774,59.5183 317.13834,252.95873 634.25904,505.9048 951.38714,758.85832"
         inkscape:path-effect="#path-effect5230"
         inkscape:connector-curvature="0"
         id="path5228"
         d="M 1947.1325,982.22662 C 1626.3161,742.16963 1305.4995,502.11249 1137.1016,376.1321 968.7036,250.15171 952.72423,238.24805 933.67218,231.30419 c -19.05205,-6.94385 -41.17727,-8.92779 -62.07367,-3.47207 -20.89639,5.45572 -40.56259,18.35088 -47.32349,34.71904 -6.7609,16.36816 -0.6153,36.20656 161.02653,172.6063 161.64185,136.39974 478.76255,389.34584 795.89135,642.29844"
         style="fill:#ffffff;fill-opacity:1;stroke:#ffffff;stroke-width:30;stroke-linecap:butt;stroke-linejoin:miter;stroke-miterlimit:4;stroke-dasharray:none;stroke-opacity:1" />
      <path
         inkscape:original-d="m 837.18085,2035.7005 c -6.14499,0 -12.2909,0 -18.43774,0 -50.40311,-71.4334 -100.79202,-142.8446 -151.18942,-214.2658 6.1468,-33.7277 12.29274,-67.4549 18.43773,-101.1812 39.33378,-50.59 78.66859,-101.1818 118.00151,-151.7716 30.72995,-17.856 61.46004,-35.7117 92.18867,-53.5665 34.41687,-2.9766 68.83514,-5.9526 103.25132,-8.9277 18.43808,16.8622 36.87638,33.7262 55.31318,50.5905 -3.6866,24.7986 -9.8325,49.5979 -14.7502,74.3979 -20.8959,27.7754 -41.79124,55.5497 -62.68826,83.3256 2.45936,35.7114 4.91765,71.4212 7.37509,107.133 28.27267,24.799 56.54327,49.5978 84.81357,74.3978 78.6687,26.7825 157.3363,53.5658 236.003,80.3497 103.2517,19.8386 206.5036,39.6781 309.754,59.5183 77.4389,-18.8481 154.8779,-37.6957 232.3154,-56.5424 20.8967,-32.7353 41.7931,-65.4708 62.6883,-98.2051 6.1467,-0.9927 9.8344,-1.9848 14.7502,-2.976 20.8925,4.9581 41.7931,9.919 62.6883,14.8796 24.5839,1.9832 49.1682,3.9671 73.751,5.9518 18.438,0 36.8764,0 55.3132,0 7.3756,-6.9442 14.7511,-13.8883 22.1253,-20.8314 9.8332,3.9667 19.6678,7.9351 29.5003,11.9037 11.0631,14.8783 22.1262,29.7584 33.188,44.6387 31.9601,9.9191 63.9183,19.8387 95.8762,29.7592 59.0007,-3.9686 118.0024,-7.9366 177.0022,-11.9037 43.0216,-10.9122 86.0437,-21.8241 129.0642,-32.7351 8.605,-32.7349 14.7511,-65.4708 22.1253,-98.2051 -43.0194,-27.7753 -86.0418,-55.5512 -129.0642,-83.3257 -23.3536,-15.8723 -49.1663,-29.7599 -73.7509,-44.6387 4.9177,-22.8162 9.8344,-45.6314 14.7502,-68.446 47.9372,-4.9604 95.8771,-9.9205 143.8143,-14.8796 57.7712,18.8463 115.544,37.6942 173.3147,56.5424 38.1053,34.718 76.2103,69.4372 114.314,104.157 13.5219,29.7585 27.0429,59.5176 40.563,89.2774 -11.0619,50.5906 -22.1244,101.1804 -33.1879,151.7717 -3.6868,61.5026 -7.3742,123.0037 -11.0627,184.5067 8.6053,52.5745 17.2095,105.1483 25.8129,157.7235 -6.1452,45.6306 -12.2909,91.2607 -18.4378,136.8921 31.9603,48.6068 63.9184,97.2125 95.8762,145.8199 38.1059,26.7826 76.2103,53.5657 114.314,80.3497 17.2094,23.8065 31.9597,47.6139 47.9381,71.4219 35.6476,26.7828 71.2935,53.5658 106.9389,80.3497 12.2927,29.7584 24.5846,59.5176 36.8754,89.2775 -22.1247,2.9752 -44.2496,5.9511 -66.3758,8.9277 -36.8763,-10.913 -73.75,-21.8241 -110.6264,-32.735 -77.4387,-16.8645 -154.8761,-33.7278 -232.3155,-50.5906 -92.1885,0 -184.3764,0 -276.566,0 -54.0837,17.8549 -108.1671,35.7102 -162.2521,53.5665 -22.1248,35.711 -44.2496,71.4212 -66.3758,107.1329 -1.2283,34.7191 -2.4575,69.4373 -3.6876,104.157 -11.062,17.8552 -22.1243,35.7103 -33.1879,53.5665 -33.1887,-15.8731 -66.3749,-33.7277 -99.5638,-50.5905 -20.8953,-33.7281 -41.7912,-67.4549 -62.6883,-101.1812 -36.8741,-24.7997 -68.8333,-47.6153 -103.2513,-71.4219 -35.6455,-3.9686 -71.2916,-7.9366 -106.9388,-11.9037 -87.2729,2.9753 -174.543,5.9511 -261.8159,8.9278 -83.5844,-7.9366 -167.1678,-15.8723 -250.7532,-23.8073 -36.8749,-15.8725 -73.75,-31.7439 -110.6264,-47.6147 -36.8749,1.9832 -73.75,3.9671 -110.6264,5.9518 -78.6688,18.8473 -157.3344,37.6942 -236.00302,56.5424 -99.56424,17.855 -199.12661,35.7103 -298.69131,53.5665 -71.29242,25.7908 -142.58423,51.5818 -213.87772,77.3738 -46.70874,-0.9928 -93.41694,-1.9847 -140.12679,-2.9759 -11.06193,-21.8246 -22.12436,-43.6476 -33.18793,-65.4702 44.25073,-14.8801 88.50206,-29.7599 132.7517,-44.6387 41.79207,-20.8316 83.58532,-41.6635 125.3766,-62.4942 43.02119,-59.5175 86.04368,-119.0373 129.06414,-178.5549 8.60508,-61.502 17.20948,-123.0052 25.81283,-184.5067 2.45926,-65.47 4.91765,-130.941 7.3751,-196.4104 3.68842,-10.9123 7.37601,-21.8241 11.06264,-32.7351 11.06267,-6.944 22.1262,-13.8884 33.18792,-20.8314 19.66602,7.9343 39.33476,15.8708 59.00075,23.8073 4.91756,33.7257 9.83439,69.4373 14.75019,104.1571 9.83457,48.6068 19.66784,97.2125 29.50038,145.8198 3.68851,36.7026 7.37602,73.4052 11.06264,110.1088 15.98058,21.8231 31.95967,41.6621 47.93811,62.4943 44.25192,0 88.50207,0 132.75167,0 55.313,-2.9766 110.6274,-5.9526 165.9396,-8.9278 35.6466,6.943 71.2935,13.8869 106.9389,20.8314 77.4379,0.9912 154.8779,1.9832 232.3155,2.9759 95.876,7.9349 191.7533,15.8708 287.6286,23.8074 95.8764,-7.9365 191.7534,-15.8723 287.6287,-23.8074 61.4594,-24.7998 122.9191,-49.5993 184.3774,-74.3978 14.7508,-42.6548 29.5013,-85.3104 44.2505,-127.9644 8.605,-24.7995 17.2095,-49.5993 25.8129,-74.3979 17.2088,1.9832 34.418,3.9672 51.6256,5.9519 9.834,35.7086 19.6678,71.4212 29.5004,107.1329 27.0434,19.839 54.085,39.6781 81.126,59.5183 39.3347,-2.9766 78.6686,-5.9526 118.0015,-8.9277 9.8342,-44.6384 19.6678,-89.2782 29.5004,-133.9162 -6.1448,-76.3811 -12.2909,-152.7644 -18.4377,-229.1455 -11.0617,-29.7596 -22.1244,-61.503 -33.188,-92.2533 -44.2489,-10.9123 -86.0418,-21.8241 -129.0641,-32.7351 -88.5014,10.9111 -177.0013,21.8226 -265.5034,32.7351 -102.0224,14.879 -204.0433,29.7584 -306.0664,44.6387 -115.5434,-3.9687 -231.0854,-7.9365 -346.6294,-11.9037 -93.4177,-17.8563 -186.8348,-35.7117 -280.2536,-53.5664 -60.2294,-10.9126 -120.459,-21.8241 -180.6898,-32.7351 -13.5202,25.7908 -27.0411,51.5818 -40.563,77.3738 -15.979,46.6235 -31.9578,93.2446 -47.9381,139.868 -4.9159,10.9111 -9.8326,21.8226 -14.7502,32.7351 -9.8334,-9.9213 -19.666,-19.8402 -29.5004,-29.7592 -6.1449,-56.5426 -12.29088,-113.0855 -18.43772,-169.6271 -13.51992,-29.7596 -27.04109,-59.5191 -40.56302,-89.2775 -36.87403,-24.7997 -73.75002,-49.5993 -110.62641,-74.3979 z"
         inkscape:path-effect="#path-effect5234"
         inkscape:connector-curvature="0"
         id="path5232"
         d="m 852.54624,2048.1003 c -21.51038,-12.3998 -27.65629,-12.3998 -55.93175,-48.1162 -28.27546,-35.7163 -78.66436,-107.1275 -100.78956,-159.7024 -22.12519,-52.5748 -15.97926,-86.302 6.7604,-128.4602 22.73965,-42.1582 62.07446,-92.75 97.10607,-126.9727 35.0316,-34.2227 65.76164,-52.0785 98.33439,-62.4939 32.57274,-10.4154 66.99101,-13.3914 93.41771,-6.4478 26.4267,6.9437 44.865,23.8077 51.6488,44.5214 6.7837,20.7137 1.8205,45.7474 -11.086,72.0351 -12.9065,26.2877 -33.8019,54.062 -43.02108,85.8058 -9.21918,31.7438 -6.7609,67.4536 8.60425,97.7094 15.36513,30.2558 43.63573,55.0546 97.10553,80.8459 53.4697,25.7913 132.1373,52.5745 223.0966,75.8857 90.9592,23.3113 194.2111,43.1508 284.5559,43.6467 90.3448,0.4958 167.7838,-18.3518 216.9507,-44.1431 49.1669,-25.7914 70.0633,-58.5269 83.5604,-75.5092 13.4971,-16.9823 17.2329,-17.736 30.1369,-15.7524 12.904,1.9836 33.8046,6.9445 56.5442,10.4163 22.7396,3.4718 47.3239,5.4558 68.8344,6.4478 21.5104,0.9919 39.9488,0.9919 52.855,-2.4802 12.9062,-3.4721 20.2816,-10.4163 28.8852,-11.904 8.6035,-1.4876 18.4381,2.4807 28.8857,11.904 10.4475,9.4234 21.5106,24.3035 43.0218,36.7033 21.5113,12.3999 53.4695,22.3194 98.949,25.2953 45.4794,2.9758 104.4811,-0.9922 155.4919,-8.432 51.0107,-7.4398 94.0328,-18.3517 119.2602,-40.3067 25.2275,-21.955 32.5434,-54.4274 14.7208,-84.6816 -17.8225,-30.2542 -60.8449,-58.0301 -94.4174,-79.2183 -33.5725,-21.1882 -58.6162,-36.3462 -68.4497,-55.1943 -9.8335,-18.8481 -4.9168,-41.6633 21.5101,-55.5504 26.4269,-13.8871 74.3668,-18.8471 127.2208,-11.9034 52.854,6.9437 110.6268,25.7916 158.5646,52.5747 47.9377,26.7831 86.0427,61.5023 111.8554,93.7412 25.8127,32.2389 39.3337,61.9981 40.5629,102.1729 1.2293,40.1749 -9.8332,90.7648 -17.2084,146.8118 -7.3752,56.047 -11.0627,117.548 -8.6043,174.5869 2.4583,57.0389 11.0625,109.6127 12.2918,158.7154 1.2292,49.1028 -4.9167,94.7329 7.99,141.8524 12.9066,47.1195 44.8647,95.7252 79.8967,133.4203 35.032,37.6952 73.1364,64.4783 100.3691,90.0577 27.2327,25.5795 42.8304,48.8182 68.6436,74.1137 25.8131,25.2955 61.4591,52.0785 85.4279,80.3494 23.9689,28.2709 36.2607,58.0302 31.3443,74.3978 -4.9163,16.3676 -27.0412,19.3435 -56.5427,15.3755 -29.5014,-3.968 -66.3751,-14.8791 -123.5326,-28.7669 -57.1575,-13.8877 -134.5949,-30.751 -219.4087,-39.1829 -84.8139,-8.4318 -177.0018,-8.4318 -250.1384,0.4959 -73.1366,8.9276 -127.22,26.7829 -165.3251,53.5663 -38.1052,26.7833 -60.2299,62.4935 -71.9075,97.709 -11.6775,35.2155 -12.9067,69.9337 -19.0524,96.221 -6.1458,26.2874 -17.2082,44.1425 -39.1341,44.7404 -21.9259,0.5979 -55.5127,-16.4683 -82.5551,-41.7639 -27.0423,-25.2956 -47.9383,-59.0223 -76.6579,-88.5248 -28.7196,-29.5025 -61.0103,-51.8389 -96.0418,-65.7266 -35.0315,-13.8876 -70.6776,-17.8555 -132.1376,-18.3515 -61.46,-0.496 -148.7301,2.4798 -234.1588,-10e-5 -85.4287,-2.4799 -169.0121,-10.4155 -229.2424,-22.3192 -60.2303,-11.9037 -97.1054,-27.7751 -133.9808,-34.7191 -36.8755,-6.9439 -73.7506,-4.96 -131.5231,5.4559 -57.7726,10.4158 -136.4382,29.2628 -225.55462,47.6144 -89.11644,18.3517 -188.67882,36.2069 -274.10736,58.0303 -85.42854,21.8235 -156.72035,47.6145 -215.72154,60.0143 -59.00119,12.3998 -105.70939,11.4079 -134.59579,-10e-5 -28.88641,-11.4081 -39.94885,-33.2311 -23.35467,-51.5825 16.59418,-18.3514 60.84551,-33.2312 103.86635,-51.0865 43.02084,-17.8553 84.81408,-38.6872 127.22014,-78.8615 42.40605,-40.1743 85.42853,-99.6941 111.24102,-160.2039 25.8125,-60.5097 34.41691,-122.0129 39.94817,-185.4986 5.53126,-63.4857 7.98966,-128.9567 11.06274,-167.1477 3.07308,-38.1909 6.76066,-49.1027 14.13566,-58.03 7.37499,-8.9274 18.43854,-15.8717 33.80217,-15.3757 15.36363,0.4961 35.03237,8.4326 47.25497,29.273 12.22261,20.8404 17.27714,56.5325 24.65232,98.1959 7.37518,41.6633 17.20846,90.269 23.969,132.9239 6.76054,42.6549 10.44806,79.3575 20.52122,108.4374 10.07316,29.0799 25.57315,49.2864 55.68881,59.7022 30.11566,10.4157 74.36581,10.4157 124.14711,8.9277 49.7813,-1.4879 105.0957,-4.4639 150.575,-2.4799 45.4793,1.9839 81.1262,8.9278 137.668,12.8957 56.5417,3.9678 133.9817,4.9597 220.6385,9.4236 86.6567,4.4639 182.534,12.3998 278.4099,12.3997 95.876,0 191.753,-7.9359 270.4203,-24.3035 78.6674,-16.3675 140.1271,-41.167 178.2313,-74.894 38.1042,-33.7269 52.8547,-76.3825 64.5318,-110.1093 11.6771,-33.7267 20.2816,-58.5265 33.188,-69.9337 12.9063,-11.4072 30.1155,-9.4232 43.6358,9.4232 13.5203,18.8464 23.3542,54.559 41.7924,82.3347 18.4381,27.7756 45.4797,47.6148 78.6679,56.0464 33.1882,8.4316 72.5222,5.4557 97.1053,-18.3515 24.5831,-23.8072 34.4168,-68.4469 36.2605,-128.9564 1.8438,-60.5094 -4.3023,-136.8927 -12.7485,-190.0198 -8.4463,-53.127 -19.8251,-84.7567 -47.4438,-105.7342 -27.6186,-20.9775 -69.4858,-31.5964 -135.2475,-31.5965 -65.7617,-10e-5 -154.2616,10.9115 -249.5239,23.8072 -95.2622,12.8957 -197.2831,27.7751 -306.0664,33.231 -108.7833,5.4559 -224.3253,1.488 -328.8062,-9.4237 -104.481,-10.9117 -197.8981,-28.767 -274.7222,-43.1506 -76.8241,-14.3836 -137.0537,-25.2953 -173.9293,-17.8559 -36.8756,7.4394 -50.3965,33.2304 -65.147,69.4381 -14.7506,36.2078 -30.7294,82.8289 -41.1774,111.5961 -10.4481,28.7673 -15.3647,39.6788 -22.7404,40.1749 -7.3757,0.4961 -17.2083,-9.4228 -25.1981,-42.6539 -7.9897,-33.2312 -14.13568,-89.7741 -23.96909,-132.9245 -9.83341,-43.1504 -23.35457,-72.9099 -48.55234,-100.1887 -25.19777,-27.2789 -62.07374,-52.0785 -83.58413,-64.4782 z"
         style="fill:#ffffff;fill-opacity:1;stroke:#ffffff;stroke-width:30;stroke-linecap:butt;stroke-linejoin:miter;stroke-miterlimit:4;stroke-dasharray:none;stroke-opacity:1" />
    </g>
  </g>
</svg>
